<?xml version="1.0" standalone="no"?>
<!DOCTYPE svg PUBLIC "-//W3C//DTD SVG 20010904//EN"
 "http://www.w3.org/TR/2001/REC-SVG-20010904/DTD/svg10.dtd">
<svg version="1.0" xmlns="http://www.w3.org/2000/svg"
 width="1226.000000pt" height="1226.000000pt" viewBox="0 0 1226.000000 1226.000000"
 preserveAspectRatio="xMidYMid meet">
<metadata>
Created by potrace 1.14, written by Peter Selinger 2001-2017
</metadata>
<g transform="translate(0.000000,1226.000000) scale(0.100000,-0.100000)"
fill="#000000" stroke="none">
<path d="M6125 11314 c-224 -30 -513 -105 -729 -188 -92 -36 -206 -88 -225
-103 -11 -8 62 -70 136 -113 287 -171 775 -341 978 -342 220 -1 809 213 1041
377 98 70 98 68 2 116 -216 109 -620 223 -918 259 -105 13 -159 12 -285 -6z
m271 -209 c109 -64 128 -224 38 -309 -71 -67 -153 -83 -231 -45 -80 38 -132
136 -118 220 8 47 54 113 98 139 50 31 157 28 213 -5z"/>
<path d="M3645 11274 c-123 -13 -352 -48 -435 -66 -130 -27 -357 -111 -460
-168 -47 -26 -116 -64 -153 -85 -69 -37 -256 -173 -402 -293 -125 -102 -502
-486 -586 -597 -264 -348 -420 -609 -530 -883 -36 -90 -75 -281 -94 -460 -17
-156 -20 -578 -5 -662 61 -351 186 -760 315 -1035 25 -55 59 -127 74 -160 84
-179 112 -234 137 -270 15 -22 48 -83 73 -135 52 -107 51 -94 36 -392 -6 -127
-4 -224 5 -343 l13 -165 -51 -105 c-28 -58 -65 -125 -81 -148 -29 -42 -139
-271 -236 -492 -95 -216 -199 -549 -261 -835 -24 -112 -28 -151 -32 -370 -5
-313 13 -518 68 -755 23 -99 29 -113 155 -381 81 -173 357 -573 525 -762 286
-320 666 -644 925 -786 309 -170 521 -235 920 -281 253 -29 480 -15 710 46 82
22 220 58 305 80 207 54 465 156 745 294 308 152 506 229 743 291 159 41 248
44 385 14 208 -47 521 -166 792 -302 355 -179 537 -243 1100 -389 127 -33 218
-42 425 -43 214 -1 368 16 599 66 198 42 442 146 661 281 286 176 765 625 981
917 146 198 305 439 350 530 142 290 171 372 208 590 52 303 54 726 6 945 -71
326 -171 649 -264 852 -139 307 -211 454 -240 496 -18 26 -53 91 -78 144 -51
109 -50 102 -32 328 9 119 9 194 -1 360 l-13 211 57 114 c32 62 67 127 78 143
26 36 195 396 258 547 90 219 166 468 231 765 l33 150 1 285 c0 175 -5 321
-13 379 -24 177 -63 365 -89 430 -32 81 -191 413 -201 421 -4 3 -47 66 -97
140 -98 147 -104 156 -220 310 -97 128 -130 166 -315 350 -193 193 -275 266
-430 384 -178 136 -216 161 -390 254 -252 134 -535 210 -912 243 -198 18 -428
1 -603 -45 -401 -104 -486 -127 -545 -149 -36 -14 -121 -47 -190 -73 -69 -26
-202 -88 -297 -136 -283 -145 -588 -264 -827 -323 -188 -47 -341 -28 -646 81
-200 72 -333 130 -510 221 -91 47 -250 118 -353 159 -231 91 -242 95 -397 134
-69 17 -179 47 -245 65 -66 19 -159 41 -207 49 -87 15 -397 28 -473 20z m510
-344 c50 -6 179 -32 288 -59 178 -44 214 -57 340 -120 78 -38 169 -86 202
-106 69 -43 438 -229 475 -241 18 -6 -12 -12 -112 -25 -75 -9 -175 -25 -221
-34 l-84 -17 -79 56 c-108 76 -414 227 -581 286 -93 33 -264 67 -403 81 -175
18 -533 -28 -687 -87 -37 -14 -105 -39 -151 -55 -83 -28 -109 -41 -212 -108
-65 -42 -96 -67 -124 -100 -58 -68 -56 -68 -193 -74 -80 -3 -156 -13 -203 -26
-41 -11 -76 -18 -78 -17 -1 2 30 32 69 67 119 104 182 162 209 187 39 36 176
126 270 176 109 58 270 120 389 152 93 24 389 71 486 76 84 5 305 -2 400 -12z
m4860 -11 c267 -37 444 -89 648 -190 158 -78 283 -168 449 -321 91 -85 135
-128 130 -128 -4 0 -36 9 -72 20 -45 15 -107 23 -200 27 l-135 6 -49 54 c-44
47 -153 128 -241 177 -53 29 -277 108 -390 136 -160 40 -420 64 -555 51 -138
-13 -307 -46 -400 -78 -95 -33 -411 -179 -500 -233 -38 -22 -90 -56 -115 -76
l-47 -36 -117 22 c-64 11 -163 27 -221 34 -68 8 -98 15 -85 20 50 18 231 108
369 184 397 216 461 243 746 307 257 58 488 65 785 24z m-4889 -313 c149 -26
244 -58 494 -166 80 -35 178 -77 219 -95 41 -17 76 -36 78 -42 2 -5 -22 -15
-54 -22 -60 -13 -262 -86 -391 -140 -156 -66 -482 -237 -574 -303 l-28 -19
-31 36 c-35 40 -150 135 -214 177 -208 136 -421 227 -634 272 l-105 22 87 57
c114 74 138 86 292 140 159 56 237 75 380 92 180 21 324 18 481 -9z m4789 10
c148 -16 242 -38 400 -95 158 -56 181 -67 271 -127 45 -30 86 -54 93 -54 6 0
11 -4 11 -8 0 -4 -42 -16 -92 -26 -294 -56 -650 -239 -846 -435 l-48 -48 -104
64 c-123 75 -397 214 -525 267 -112 47 -333 123 -380 132 -19 3 -37 10 -40 14
-3 4 35 25 83 45 48 21 132 58 187 82 268 121 386 158 625 196 58 10 244 6
365 -7z m-6011 -740 c99 -19 242 -69 340 -118 72 -36 214 -125 261 -163 23
-19 32 -8 -101 -116 -252 -205 -578 -545 -780 -814 -27 -36 -54 -64 -60 -62
-19 3 -161 165 -218 247 -68 98 -117 195 -152 300 -25 77 -28 99 -28 230 l-1
145 36 76 c45 93 82 136 167 192 67 45 130 70 213 86 71 14 241 12 323 -3z
m3864 -29 c29 -65 163 -236 234 -297 169 -148 210 -176 393 -268 195 -98 268
-121 475 -153 119 -17 173 -21 300 -16 139 4 165 8 250 36 52 17 115 42 139
56 51 30 33 38 206 -89 189 -138 333 -263 531 -460 159 -160 361 -385 372
-416 2 -4 -11 -31 -28 -58 -82 -134 -112 -258 -114 -477 -1 -126 3 -174 17
-225 53 -194 226 -439 385 -543 131 -87 302 -157 419 -172 l52 -7 11 -51 c25
-117 50 -294 60 -429 15 -198 7 -650 -15 -808 -15 -111 -51 -310 -58 -316 -1
-1 -39 -9 -84 -18 -45 -9 -112 -28 -150 -42 -94 -35 -251 -125 -310 -178 -127
-114 -252 -304 -301 -456 -25 -80 -27 -95 -26 -260 2 -144 6 -189 23 -255 21
-79 59 -165 103 -236 l22 -37 -39 -48 c-277 -340 -617 -658 -955 -893 l-75
-52 -70 35 c-116 58 -201 77 -366 83 -214 8 -448 -27 -609 -92 -234 -95 -457
-237 -601 -384 -55 -57 -162 -201 -188 -254 l-23 -47 -459 0 -459 0 -20 41
c-31 60 -116 176 -174 238 -58 61 -210 191 -264 225 -63 39 -285 154 -332 171
-195 72 -382 105 -587 105 -162 0 -280 -24 -398 -79 l-87 -41 -66 47 c-127 90
-277 207 -377 293 -196 171 -451 434 -575 594 l-44 58 18 32 c80 137 112 241
126 411 15 181 -2 306 -61 434 -55 117 -134 232 -226 326 -127 130 -320 226
-548 272 l-40 8 -17 90 c-51 271 -53 302 -53 710 0 407 4 460 53 710 l18 90
50 8 c180 30 412 145 530 262 127 126 233 301 275 452 30 105 30 314 1 454
-19 90 -66 208 -111 274 l-20 31 92 110 c169 204 268 305 535 547 33 30 285
227 337 265 6 4 32 22 57 40 l47 33 68 -34 c125 -63 191 -78 368 -84 186 -6
397 19 532 63 157 51 412 187 535 284 139 112 253 241 327 372 l32 57 459 0
460 0 18 -42z m3301 13 c161 -55 265 -148 317 -287 85 -224 2 -534 -215 -803
-52 -64 -152 -170 -161 -170 -4 0 -27 26 -51 58 -207 274 -501 581 -787 819
l-122 103 53 38 c165 120 351 208 522 246 39 8 79 18 90 20 11 3 81 3 155 2
106 -3 149 -8 199 -26z m-4859 -79 c0 -6 -48 -49 -107 -97 -119 -96 -222 -150
-345 -183 -93 -24 -248 -36 -303 -23 l-40 9 95 46 c200 96 324 143 635 240 62
19 65 19 65 8z m2208 -5 c300 -91 442 -145 647 -242 l100 -47 -55 -10 c-116
-21 -342 23 -476 91 -44 22 -267 196 -272 213 -5 12 1 12 56 -5z m3493 -228
c97 -150 120 -191 204 -358 140 -277 166 -359 186 -571 19 -198 -19 -509 -99
-801 -28 -101 -58 -217 -67 -258 -9 -41 -35 -129 -57 -195 -35 -107 -66 -173
-197 -428 l-34 -68 -44 148 c-24 81 -48 156 -53 165 -15 26 -15 25 45 133 118
215 166 357 246 740 30 144 42 230 50 357 11 183 11 186 -45 406 -46 181 -137
375 -167 357 -4 -3 -5 56 -2 132 5 125 -5 260 -23 306 -14 36 6 13 57 -65z
m-9202 11 c-13 -63 -15 -284 -4 -348 5 -30 4 -41 -3 -37 -37 23 -120 -154
-178 -381 l-46 -178 7 -170 c5 -136 13 -205 41 -345 45 -222 107 -464 146
-560 30 -78 131 -274 154 -300 11 -13 7 -35 -25 -135 -21 -66 -44 -144 -52
-172 -7 -29 -15 -53 -19 -53 -3 0 -46 80 -97 178 -100 195 -158 352 -203 550
-16 70 -43 171 -59 225 -39 125 -56 213 -81 412 -32 254 -24 439 26 615 26 91
188 428 274 570 64 105 122 191 127 187 2 -2 -2 -28 -8 -58z m31 -509 c0 -30
65 -201 113 -295 49 -99 150 -252 213 -325 66 -76 184 -193 214 -213 23 -16
24 -19 10 -40 -87 -136 -256 -464 -334 -652 -26 -60 -52 -123 -60 -140 l-14
-30 -11 29 c-6 15 -33 76 -60 135 -118 255 -210 623 -218 876 -4 112 -1 166
16 270 30 181 69 334 94 372 25 38 37 42 37 13z m9170 -111 c49 -183 70 -333
70 -504 0 -144 -4 -182 -35 -341 -40 -207 -114 -438 -198 -618 -63 -134 -54
-135 -112 13 -50 128 -167 370 -252 521 -39 69 -78 139 -87 155 l-17 30 123
125 c68 69 152 166 188 215 83 116 192 330 227 446 l27 92 22 -26 c11 -14 31
-62 44 -108z m-8346 -1280 c17 -89 -8 -186 -59 -225 -36 -27 -105 -49 -105
-33 0 17 140 289 149 289 5 0 11 -14 15 -31z m7543 -111 c39 -79 69 -146 67
-150 -2 -3 -19 -2 -37 3 -82 23 -127 91 -127 191 0 66 6 98 19 98 4 0 39 -64
78 -142z m-8352 -2590 c10 -40 33 -117 51 -172 l33 -99 -23 -36 c-100 -159
-160 -302 -214 -511 -72 -275 -110 -495 -117 -680 l-7 -165 45 -177 c25 -97
58 -203 73 -235 42 -90 84 -153 101 -153 12 0 14 -7 9 -34 -12 -61 -7 -299 8
-358 7 -32 9 -55 5 -52 -11 7 -82 114 -144 219 -79 134 -214 411 -246 505 -35
107 -59 260 -59 392 0 129 43 461 75 579 14 52 48 180 75 286 27 105 63 233
80 285 29 87 217 478 230 478 3 0 15 -33 25 -72z m9197 -126 c103 -209 148
-335 212 -592 20 -80 50 -196 66 -258 42 -161 74 -407 74 -577 0 -269 -46
-424 -220 -750 -85 -158 -213 -365 -226 -365 -3 0 -1 17 5 38 7 22 12 109 12
220 0 119 4 182 10 182 13 0 64 84 100 161 14 31 46 139 71 240 l46 183 -10
170 c-8 129 -21 220 -51 371 -23 110 -48 220 -55 245 -8 25 -26 90 -41 145
-25 99 -91 247 -167 378 l-39 67 34 103 c19 56 42 132 52 170 10 37 21 67 24
67 3 -1 50 -90 103 -198z m-9012 -412 c71 -169 203 -439 289 -588 l72 -123
-33 -26 c-59 -49 -189 -187 -247 -263 -120 -157 -221 -348 -262 -495 -13 -44
-24 -82 -26 -84 -1 -2 -11 7 -22 20 -51 61 -121 419 -120 619 0 242 106 679
222 918 25 50 50 105 56 123 6 18 13 30 15 28 2 -2 27 -60 56 -129z m8831 -41
c80 -172 143 -383 189 -639 24 -128 26 -374 6 -500 -36 -213 -72 -348 -103
-382 -15 -17 -18 -13 -45 70 -84 254 -234 488 -448 697 -91 88 -92 90 -78 115
165 280 280 514 389 787 l11 28 15 -35 c8 -19 37 -83 64 -141z m-8283 110 c39
-30 61 -63 72 -111 13 -50 8 -144 -8 -160 -7 -7 -152 269 -152 291 0 12 65 -3
88 -20z m7675 -17 c-20 -49 -57 -122 -101 -202 -33 -59 -37 -62 -43 -40 -23
83 0 200 49 243 22 20 93 48 104 41 4 -3 0 -21 -9 -42z m-7558 -1204 c159
-221 540 -622 780 -822 72 -59 131 -111 133 -116 5 -13 -182 -133 -283 -184
-194 -95 -359 -132 -554 -124 -96 5 -130 11 -198 36 -135 50 -216 118 -271
229 -44 88 -55 150 -50 277 4 89 12 130 37 206 38 112 118 258 195 354 62 78
164 186 174 186 4 0 21 -19 37 -42z m7487 -38 c204 -226 310 -443 325 -670 16
-259 -130 -456 -388 -521 -72 -19 -102 -21 -219 -16 -161 7 -265 32 -428 105
-94 42 -333 188 -331 202 0 3 42 37 92 77 255 201 610 568 822 851 21 28 42
52 46 52 4 0 40 -36 81 -80z m-5460 -800 c96 -11 225 -48 303 -87 53 -27 290
-211 282 -220 -14 -14 -386 111 -567 190 -195 85 -230 101 -230 109 0 6 36 12
100 16 14 1 64 -3 112 -8z m3487 4 c17 -4 31 -10 31 -14 0 -14 -311 -149 -475
-206 -116 -40 -307 -96 -312 -90 -5 4 49 52 167 148 137 110 435 193 589 162z
m-4208 -372 c29 -23 246 -144 349 -197 169 -85 422 -186 565 -226 44 -12 84
-26 89 -30 5 -4 -6 -15 -25 -23 -342 -153 -585 -250 -664 -265 -145 -27 -177
-32 -260 -41 -109 -10 -343 9 -485 41 -95 21 -325 100 -388 133 -18 9 -67 39
-109 66 -41 28 -79 50 -84 50 -5 0 -9 4 -9 9 0 4 35 14 78 21 186 29 456 143
646 271 98 66 223 168 239 195 11 19 30 17 58 -4z m4852 -34 c134 -132 360
-270 579 -352 107 -40 278 -86 321 -86 15 0 27 -4 27 -10 0 -5 -5 -10 -11 -10
-6 0 -48 -24 -92 -54 -111 -72 -119 -76 -307 -140 -166 -56 -255 -74 -465 -94
-168 -16 -435 19 -593 78 -75 27 -411 169 -448 188 -11 5 -43 20 -71 33 -29
12 -51 24 -49 26 2 3 51 18 108 34 143 41 353 127 543 222 149 74 192 97 335
184 30 18 58 33 62 33 5 0 32 -23 61 -52z m-6343 -423 c54 -15 283 -37 305
-29 6 3 21 -6 33 -18 101 -108 222 -194 336 -238 325 -128 517 -167 806 -163
204 2 452 57 625 138 242 113 371 180 439 229 l78 57 52 -11 c116 -23 226 -40
303 -46 45 -4 80 -11 77 -15 -3 -5 -12 -9 -20 -9 -9 0 -79 -32 -157 -72 -78
-39 -164 -82 -192 -96 -27 -13 -61 -32 -75 -42 -45 -32 -314 -169 -380 -193
-92 -35 -379 -104 -480 -116 -237 -28 -433 -22 -690 20 -298 49 -523 134 -769
293 -24 15 -82 62 -130 104 -214 190 -261 235 -236 229 11 -3 45 -13 75 -22z
m7769 -33 c-35 -32 -102 -93 -149 -136 -341 -309 -819 -473 -1365 -468 -222 2
-299 11 -495 58 -251 60 -298 79 -601 245 -189 104 -415 219 -459 234 -24 8
-23 8 10 12 85 9 261 35 334 49 l78 16 27 -24 c72 -67 399 -235 601 -311 105
-39 317 -82 453 -92 150 -11 436 22 597 70 129 39 299 105 358 140 78 45 184
124 202 149 36 52 54 60 146 63 109 4 207 18 259 37 69 25 70 18 4 -42z"/>
<path d="M4003 10909 c-49 -18 -54 -91 -8 -109 55 -21 102 31 77 84 -12 27
-39 36 -69 25z"/>
<path d="M3603 10888 c-62 -30 -24 -120 43 -104 27 7 48 48 39 76 -4 13 -48
43 -58 39 -1 0 -12 -5 -24 -11z"/>
<path d="M4330 10838 c-11 -12 -20 -31 -20 -43 0 -29 36 -65 64 -65 28 0 66
39 66 67 0 25 -44 63 -71 63 -10 0 -27 -10 -39 -22z"/>
<path d="M3203 10803 c-43 -30 -15 -113 39 -113 51 0 78 85 36 114 -28 20 -47
19 -75 -1z"/>
<path d="M4671 10714 c-34 -44 -9 -106 43 -106 60 0 87 69 43 110 -31 29 -61
28 -86 -4z"/>
<path d="M2877 10662 c-53 -58 28 -137 83 -82 27 27 26 65 -2 84 -30 21 -61
20 -81 -2z"/>
<path d="M5027 10572 c-20 -2 -33 -13 -44 -36 -14 -30 -14 -36 1 -64 19 -37
48 -48 87 -32 73 31 36 143 -44 132z"/>
<path d="M2651 10481 c-28 -28 -26 -57 4 -77 21 -14 31 -15 50 -6 24 11 30 27
25 62 -4 36 -52 48 -79 21z"/>
<path d="M8510 10895 c-33 -40 7 -113 54 -99 46 14 59 50 36 95 -13 23 -72 26
-90 4z"/>
<path d="M8930 10892 c-42 -13 -53 -73 -17 -96 40 -27 87 -3 87 44 0 37 -35
63 -70 52z"/>
<path d="M8170 10847 c-35 -17 -39 -68 -9 -96 27 -25 47 -26 77 -5 28 19 30
74 4 97 -22 20 -38 21 -72 4z"/>
<path d="M9290 10798 c-11 -12 -20 -31 -20 -43 0 -27 35 -65 59 -65 28 0 71
39 71 63 0 28 -9 41 -37 56 -32 16 -50 14 -73 -11z"/>
<path d="M7814 10715 c-19 -19 -23 -31 -18 -52 10 -41 23 -53 59 -53 59 0 87
68 45 110 -27 27 -56 25 -86 -5z"/>
<path d="M9611 10659 c-24 -26 -25 -30 -9 -64 14 -32 53 -43 87 -24 50 28 34
93 -25 105 -25 5 -36 1 -53 -17z"/>
<path d="M7495 10559 c-48 -39 -22 -129 38 -129 13 0 33 10 45 23 60 63 -15
159 -83 106z"/>
<path d="M9856 10481 c-21 -23 -20 -44 2 -71 14 -17 25 -21 44 -17 41 11 53
59 22 96 -10 12 -55 7 -68 -8z"/>
<path d="M2595 9604 c-36 -13 -57 -30 -132 -104 -34 -33 -83 -137 -83 -176 0
-78 103 -208 199 -252 67 -31 124 -26 209 17 120 61 179 149 169 252 -14 130
-79 234 -164 263 -57 20 -145 20 -198 0z"/>
<path d="M6255 9173 c-16 -72 -58 -224 -106 -383 -38 -123 -121 -325 -189
-455 -81 -157 -104 -195 -235 -395 -56 -85 -114 -174 -128 -197 -39 -62 -78
-85 -237 -137 -387 -127 -465 -171 -583 -330 -74 -98 -127 -199 -195 -369 -70
-172 -176 -344 -298 -482 -152 -170 -265 -255 -474 -356 -69 -33 -151 -72
-183 -88 l-58 -28 138 -63 c276 -127 392 -206 543 -368 92 -100 216 -275 270
-383 16 -31 45 -98 66 -150 79 -202 156 -331 263 -439 93 -95 171 -133 464
-231 253 -84 236 -72 335 -231 37 -59 91 -141 120 -183 107 -153 244 -415 321
-615 41 -108 129 -404 173 -579 24 -98 36 -81 78 99 56 244 159 530 272 755
81 160 127 239 231 392 40 59 95 143 121 185 42 69 53 79 109 107 34 16 134
53 222 82 186 60 301 110 374 165 109 80 236 276 320 493 119 306 358 605 607
760 48 30 228 121 349 176 l60 28 -173 83 c-248 119 -342 184 -491 337 -98
102 -113 120 -188 232 -71 107 -123 207 -163 316 -81 217 -211 415 -329 497
-88 62 -145 87 -379 166 -120 40 -231 81 -245 91 -15 9 -48 52 -74 94 -26 42
-81 125 -121 185 -247 368 -382 674 -498 1131 -50 198 -61 209 -89 88z m65
-1008 c37 -95 108 -234 160 -310 294 -436 453 -692 534 -855 29 -58 64 -123
78 -145 78 -126 260 -501 300 -620 l43 -130 -1 -155 c0 -153 -1 -157 -38 -265
-38 -110 -93 -238 -130 -305 -20 -36 -126 -235 -251 -470 -95 -179 -144 -262
-306 -508 -268 -408 -298 -459 -350 -572 -28 -63 -56 -126 -61 -140 -8 -22
-13 -15 -53 75 -24 55 -53 120 -65 145 -25 50 -200 325 -300 470 -67 98 -150
228 -150 235 0 3 -21 37 -46 77 -26 40 -75 127 -109 193 -34 66 -71 136 -83
155 -113 191 -258 495 -309 645 -42 127 -43 131 -43 267 0 132 2 142 39 260
22 68 58 162 80 210 23 48 41 90 41 93 0 4 8 19 19 33 10 15 51 90 91 167 40
76 78 148 85 160 7 11 40 72 72 135 81 156 132 241 311 513 84 127 179 273
212 322 62 95 162 291 182 357 13 45 17 42 48 -37z m-1010 -882 c0 -5 -30 -60
-66 -123 -36 -63 -86 -153 -112 -200 -25 -47 -61 -109 -80 -139 -37 -57 -127
-250 -194 -414 -52 -129 -79 -275 -80 -437 -1 -206 28 -355 99 -515 25 -55 65
-145 90 -200 24 -55 68 -140 97 -190 104 -175 249 -436 244 -440 -8 -8 -108
23 -172 53 -122 57 -180 129 -260 322 -120 287 -277 564 -404 710 -84 97 -118
125 -229 192 l-93 55 34 15 c159 76 304 218 429 417 57 92 229 434 276 552 40
97 94 182 145 227 41 36 164 97 222 111 52 12 54 12 54 4z m2021 -9 c89 -27
189 -83 239 -134 46 -47 93 -132 145 -263 35 -90 180 -379 220 -442 17 -27 42
-68 55 -89 74 -123 229 -276 346 -341 l91 -50 -61 -34 c-121 -67 -176 -112
-266 -218 -130 -154 -244 -350 -370 -638 -96 -220 -106 -239 -161 -296 -58
-59 -140 -105 -246 -138 -35 -10 -63 -17 -63 -14 0 2 12 25 27 51 61 109 193
344 245 437 77 137 204 428 228 521 31 121 43 247 37 389 -10 221 -28 282
-184 631 -28 61 -73 149 -101 195 -28 46 -75 129 -105 184 -30 55 -75 137
-100 183 -25 45 -42 82 -38 82 4 0 32 -7 62 -16z"/>
<path d="M6244 7779 c-15 -16 -20 -40 -23 -105 -3 -88 13 -156 49 -204 l18
-23 26 39 c47 72 60 231 23 288 -22 33 -66 35 -93 5z"/>
<path d="M6253 7378 c-17 -18 -48 -56 -69 -84 -22 -28 -73 -93 -115 -145 -92
-113 -165 -221 -209 -309 -18 -36 -52 -94 -75 -130 -59 -90 -89 -153 -145
-299 -78 -204 -93 -279 -93 -461 1 -133 4 -169 26 -253 33 -126 118 -337 172
-429 24 -40 67 -116 96 -168 74 -134 133 -224 199 -305 31 -39 93 -115 137
-170 113 -141 108 -138 151 -90 19 22 49 59 66 81 17 23 65 84 107 135 84 104
193 262 203 296 4 11 32 61 62 110 73 115 114 198 169 337 80 205 90 256 90
461 0 156 -3 191 -23 264 -43 156 -139 384 -202 476 -15 22 -48 81 -75 130
-58 110 -152 248 -252 369 -151 183 -178 216 -184 216 -3 0 -19 -15 -36 -32z
m72 -454 c53 -25 84 -105 65 -172 -17 -64 -54 -102 -100 -102 -118 0 -151 215
-41 275 33 18 36 18 76 -1z m-345 -324 c11 -11 20 -31 20 -45 0 -29 -40 -75
-65 -75 -23 0 -65 45 -65 70 0 27 43 70 70 70 11 0 29 -9 40 -20z m690 10 c26
-14 43 -69 27 -89 -35 -46 -66 -52 -97 -19 -52 57 3 144 70 108z m-279 -254
c66 -29 161 -103 209 -162 95 -117 106 -321 24 -447 -65 -100 -225 -211 -321
-224 -93 -12 -304 131 -362 245 -12 23 -29 74 -38 113 -44 195 80 391 307 486
64 27 100 25 181 -11z m-591 -92 c17 -20 2 -67 -23 -72 -24 -5 -47 16 -47 42
0 42 45 61 70 30z m1042 -10 c15 -32 0 -59 -32 -59 -30 0 -51 33 -39 63 12 32
56 30 71 -4z m-1122 -299 c0 -8 -9 -15 -20 -15 -11 0 -20 7 -20 15 0 8 9 15
20 15 11 0 20 -7 20 -15z m1170 2 c0 -19 -10 -27 -26 -20 -21 8 -17 33 6 33
11 0 20 -6 20 -13z m-1096 -253 c33 -33 4 -94 -34 -74 -32 17 -41 44 -24 68
18 26 37 28 58 6z m1040 0 c33 -32 10 -79 -36 -72 -17 2 -24 11 -26 31 -6 49
30 73 62 41z m-859 -299 c30 -29 32 -68 4 -96 -27 -27 -67 -21 -92 13 -25 34
-15 76 23 95 34 17 37 17 65 -12z m688 14 c29 -16 37 -28 37 -61 0 -59 -73
-90 -104 -46 -24 34 -20 73 10 97 31 25 29 24 57 10z m-313 -187 c27 -28 50
-86 50 -127 -1 -41 -36 -100 -72 -119 -31 -17 -40 -18 -67 -6 -73 30 -102 131
-61 215 34 71 100 87 150 37z"/>
<path d="M6197 6266 c-32 -13 -68 -33 -80 -42 -68 -57 -92 -85 -118 -139 -57
-118 -29 -264 67 -358 59 -58 157 -102 224 -102 106 0 231 83 285 191 26 51
30 70 30 139 0 69 -4 88 -30 139 -34 67 -95 125 -172 162 -76 38 -134 41 -206
10z"/>
<path d="M6249 4398 c-19 -44 -24 -70 -24 -149 0 -82 3 -100 19 -118 31 -34
76 -25 99 19 26 50 18 169 -16 244 -14 31 -32 56 -40 56 -8 0 -25 -24 -38 -52z"/>
<path d="M5697 8659 c-22 -13 -42 -53 -51 -100 -6 -35 7 -110 39 -229 17 -63
20 -157 5 -196 -14 -37 -6 -41 28 -13 39 33 99 128 124 197 48 131 30 293 -36
333 -34 21 -81 24 -109 8z"/>
<path d="M6780 8657 c-14 -6 -36 -34 -50 -62 -21 -42 -25 -63 -23 -126 3 -126
70 -284 147 -342 l33 -26 -5 87 c-4 74 0 106 23 197 35 139 31 212 -11 256
-30 32 -71 38 -114 16z"/>
<path d="M3885 8427 c-65 -22 -84 -39 -106 -96 -24 -65 -20 -107 21 -198 75
-165 178 -260 455 -417 314 -178 373 -204 390 -176 3 5 1 17 -4 27 -5 10 -28
68 -51 128 -64 173 -86 222 -157 350 -155 282 -269 384 -437 392 -41 1 -88 -3
-111 -10z"/>
<path d="M8510 8431 c-132 -43 -223 -135 -345 -346 -69 -119 -95 -176 -168
-361 -74 -185 -76 -194 -45 -194 25 0 129 50 258 123 41 23 99 56 129 72 225
126 353 241 422 380 39 77 44 97 44 154 0 87 -17 120 -79 150 -52 26 -169 38
-216 22z"/>
<path d="M5228 8327 c-34 -28 -51 -71 -43 -111 20 -100 91 -228 138 -247 85
-36 124 79 76 224 -26 79 -56 123 -96 142 -40 19 -43 19 -75 -8z"/>
<path d="M7270 8332 c-52 -27 -103 -133 -108 -224 -6 -104 12 -148 63 -148 61
0 152 146 162 260 6 57 5 60 -30 95 -41 41 -41 41 -87 17z"/>
<path d="M4763 8105 c-29 -21 -37 -64 -23 -132 16 -77 40 -122 89 -166 48 -44
82 -47 116 -12 52 52 19 192 -66 277 -51 51 -79 59 -116 33z"/>
<path d="M7730 8104 c-63 -39 -120 -149 -123 -236 -2 -37 3 -52 22 -72 14 -14
34 -26 45 -26 35 0 85 37 116 87 37 58 50 102 50 170 0 44 -4 55 -26 72 -32
25 -50 26 -84 5z"/>
<path d="M4086 7513 c-14 -14 -36 -75 -36 -98 0 -36 45 -81 114 -115 80 -40
139 -39 169 2 18 24 19 32 9 67 -14 47 -65 94 -136 127 -50 24 -106 31 -120
17z"/>
<path d="M8364 7494 c-114 -60 -166 -152 -114 -204 51 -51 227 12 268 96 13
29 13 36 -2 76 -10 23 -23 46 -29 50 -24 15 -75 7 -123 -18z"/>
<path d="M3893 7050 c-32 -13 -55 -63 -44 -93 22 -56 158 -127 244 -127 108 0
100 117 -13 195 -33 23 -55 30 -104 32 -33 2 -71 -1 -83 -7z"/>
<path d="M8526 7044 c-73 -40 -134 -123 -121 -165 18 -54 86 -61 199 -19 117
44 159 121 95 174 -25 21 -40 26 -87 26 -32 -1 -70 -8 -86 -16z"/>
<path d="M2940 6862 c-57 -37 -74 -56 -102 -117 -32 -71 -31 -222 1 -315 36
-104 134 -225 280 -348 31 -26 70 -60 87 -75 17 -15 40 -34 49 -41 17 -12 17
-14 -4 -28 -12 -8 -38 -30 -59 -49 -20 -19 -58 -51 -84 -72 -125 -101 -226
-224 -265 -324 -22 -56 -26 -85 -27 -168 -2 -156 35 -235 133 -285 54 -27 74
-25 114 9 75 67 104 161 127 411 23 265 53 367 134 454 20 21 36 40 36 43 0 2
-10 14 -23 26 -34 33 -86 111 -101 154 -13 38 -18 75 -57 398 -18 152 -24 177
-55 240 -55 112 -108 136 -184 87z"/>
<path d="M9541 6879 c-55 -22 -109 -116 -129 -224 -6 -33 -16 -112 -22 -175
-29 -301 -56 -398 -136 -482 -19 -20 -34 -39 -34 -43 0 -3 10 -16 21 -28 12
-12 38 -48 59 -79 44 -68 60 -139 90 -408 25 -228 26 -232 60 -300 58 -115
101 -137 182 -95 57 30 68 40 100 100 20 35 23 55 23 160 0 186 -36 266 -190
420 -71 71 -207 191 -246 216 -15 10 7 34 111 118 80 64 221 211 259 267 53
80 74 167 69 287 -3 86 -8 111 -30 157 -40 80 -130 133 -187 109z"/>
<path d="M4065 6526 c-37 -19 -56 -21 -225 -21 -204 0 -234 -7 -258 -59 -12
-24 -12 -34 3 -72 28 -74 105 -104 217 -84 86 16 168 62 236 132 60 62 66 70
76 106 9 26 4 26 -49 -2z"/>
<path d="M8460 6530 c0 -45 118 -163 204 -204 65 -31 162 -49 217 -40 63 10
109 57 116 116 10 91 -49 114 -268 103 -141 -7 -148 -6 -207 18 -56 22 -62 23
-62 7z"/>
<path d="M2492 6211 c-45 -12 -135 -73 -165 -113 -99 -133 -42 -303 128 -384
129 -61 355 -6 648 158 85 48 107 65 107 83 0 14 -10 27 -27 36 -16 8 -60 33
-99 55 -216 127 -468 197 -592 165z"/>
<path d="M9885 6206 c-33 -7 -69 -17 -80 -21 -11 -4 -60 -23 -110 -41 -113
-43 -327 -164 -331 -187 -2 -15 58 -67 77 -67 3 0 41 -20 85 -45 90 -51 222
-104 338 -136 193 -52 365 16 416 163 24 69 25 89 5 156 -20 65 -51 102 -126
148 -52 31 -69 36 -137 40 -42 2 -104 -3 -137 -10z"/>
<path d="M3683 5618 c-51 -11 -90 -48 -104 -101 -9 -35 -8 -44 9 -66 32 -43
88 -53 247 -46 114 5 150 3 195 -11 30 -9 61 -21 68 -26 20 -17 26 -1 12 31
-14 36 -115 136 -167 168 -76 46 -185 68 -260 51z"/>
<path d="M8770 5615 c-81 -14 -150 -49 -218 -111 -48 -42 -92 -107 -92 -133 0
-6 21 0 48 12 43 20 60 22 202 20 177 -3 252 8 275 40 21 29 19 76 -5 114 -35
59 -103 77 -210 58z"/>
<path d="M4007 5060 c-75 -23 -132 -62 -152 -100 -15 -29 -15 -33 5 -65 20
-33 27 -37 80 -49 89 -19 230 85 230 171 0 62 -57 77 -163 43z"/>
<path d="M8425 5056 c-16 -16 -24 -33 -21 -42 3 -9 6 -22 6 -30 0 -21 69 -93
109 -113 55 -28 88 -33 134 -21 72 19 98 80 58 132 -26 32 -147 87 -209 95
-45 5 -53 3 -77 -21z"/>
<path d="M4162 4609 c-34 -16 -73 -44 -87 -60 -25 -31 -34 -82 -15 -94 6 -4 8
-10 6 -14 -3 -4 2 -18 11 -31 47 -67 248 42 269 146 4 21 0 37 -16 57 -30 38
-87 37 -168 -4z"/>
<path d="M8250 4618 c-37 -40 -20 -100 46 -158 69 -60 168 -89 197 -57 13 13
37 76 37 95 0 7 -18 32 -41 57 -69 75 -196 109 -239 63z"/>
<path d="M4496 4326 c-169 -89 -386 -215 -458 -268 -140 -102 -239 -241 -268
-373 -10 -42 -8 -59 7 -104 16 -49 23 -58 68 -80 42 -22 63 -26 135 -26 73 0
94 4 148 29 147 68 300 299 451 679 39 99 68 183 65 188 -11 18 -47 8 -148
-45z"/>
<path d="M7930 4370 c0 -6 16 -51 35 -100 19 -49 35 -92 35 -94 0 -20 104
-243 158 -339 153 -271 281 -375 450 -365 190 10 250 131 160 319 -77 163
-193 262 -508 437 -25 14 -80 45 -124 69 -130 74 -206 101 -206 73z"/>
<path d="M4855 4122 c-59 -37 -102 -108 -115 -189 -13 -72 -5 -109 26 -129 72
-47 188 79 201 219 4 51 2 66 -13 84 -27 32 -63 37 -99 15z"/>
<path d="M7642 4124 c-36 -25 -44 -58 -31 -126 15 -75 72 -166 121 -192 31
-17 40 -18 67 -6 37 15 46 40 38 119 -8 93 -67 186 -133 211 -33 13 -36 13
-62 -6z"/>
<path d="M5315 3938 c-40 -23 -72 -73 -106 -163 -39 -105 -25 -182 39 -206 59
-23 121 41 156 160 42 144 -6 257 -89 209z"/>
<path d="M7183 3924 c-24 -24 -25 -30 -21 -108 5 -103 48 -204 100 -236 45
-27 54 -26 95 15 35 35 36 37 30 95 -9 108 -101 260 -156 260 -12 0 -34 -12
-48 -26z"/>
<path d="M5697 3722 c5 -65 1 -94 -22 -182 -54 -208 -24 -312 87 -297 50 7 73
28 92 85 33 95 7 258 -57 362 -26 43 -86 110 -98 110 -5 0 -6 -35 -2 -78z"/>
<path d="M6849 3777 c-38 -32 -93 -123 -118 -196 -43 -124 -26 -272 37 -321
28 -22 88 -26 113 -7 54 41 62 132 23 275 -22 79 -26 111 -22 184 2 48 2 88
-1 88 -3 -1 -18 -11 -32 -23z"/>
<path d="M9781 9607 c-84 -27 -152 -141 -159 -269 -4 -69 -2 -81 22 -122 46
-79 148 -146 243 -162 92 -14 217 65 277 176 54 99 30 190 -80 298 -47 46 -79
69 -112 78 -53 16 -142 17 -191 1z"/>
<path d="M10940 9310 c-26 -26 -25 -51 1 -85 18 -22 27 -26 52 -21 37 8 47 21
47 63 0 55 -61 82 -100 43z"/>
<path d="M11058 9015 c-28 -62 60 -120 92 -60 10 18 11 33 4 53 -8 22 -16 28
-47 30 -32 3 -39 -1 -49 -23z"/>
<path d="M11163 8665 c-30 -21 -34 -51 -11 -80 22 -29 44 -32 76 -9 28 19 29
57 2 84 -24 24 -38 25 -67 5z"/>
<path d="M11156 8284 c-38 -37 -10 -104 44 -104 53 0 80 68 42 103 -23 21 -66
22 -86 1z"/>
<path d="M11080 7918 c-11 -12 -20 -31 -20 -43 0 -25 39 -65 64 -65 21 0 66
44 66 65 0 22 -45 65 -69 65 -11 0 -29 -10 -41 -22z"/>
<path d="M10970 7550 c-39 -39 -14 -100 43 -100 27 0 57 32 57 60 0 23 -37 60
-60 60 -11 0 -29 -9 -40 -20z"/>
<path d="M10846 7251 c-25 -27 -17 -72 15 -90 24 -13 29 -13 53 2 47 31 27
107 -28 107 -13 0 -31 -9 -40 -19z"/>
<path d="M1551 9306 c-18 -19 -22 -31 -16 -55 17 -77 118 -61 118 19 0 57 -62
79 -102 36z"/>
<path d="M1432 9028 c-7 -7 -12 -26 -12 -43 0 -37 16 -55 48 -55 46 0 72 59
42 95 -15 18 -61 20 -78 3z"/>
<path d="M1359 8666 c-56 -27 -21 -121 38 -100 34 12 48 35 40 66 -9 33 -46
50 -78 34z"/>
<path d="M1337 8282 c-36 -40 -9 -102 45 -102 53 0 79 74 36 104 -30 21 -61
20 -81 -2z"/>
<path d="M1415 7915 c-14 -13 -25 -33 -25 -45 0 -27 35 -60 63 -60 54 0 80 78
37 112 -30 24 -46 23 -75 -7z"/>
<path d="M1531 7551 c-12 -12 -21 -34 -21 -49 0 -57 88 -69 112 -16 10 20 8
29 -9 52 -25 34 -56 39 -82 13z"/>
<path d="M1643 7244 c-15 -24 -15 -29 -2 -53 28 -50 109 -34 109 23 0 55 -76
76 -107 30z"/>
<path d="M1655 4736 c-30 -30 -32 -57 -7 -79 53 -48 133 19 90 75 -24 30 -56
31 -83 4z"/>
<path d="M1526 4444 c-44 -44 19 -131 70 -96 13 8 34 46 34 61 0 20 -40 51
-64 51 -14 0 -32 -7 -40 -16z"/>
<path d="M1416 4079 c-31 -25 -34 -61 -6 -89 28 -28 64 -25 89 7 24 30 20 58
-11 86 -26 22 -40 22 -72 -4z"/>
<path d="M1342 3714 c-45 -31 -17 -104 41 -104 28 0 57 32 57 62 0 23 -35 58
-58 58 -10 0 -28 -7 -40 -16z"/>
<path d="M1352 3334 c-24 -17 -30 -62 -10 -82 20 -20 76 -15 88 7 15 29 12 49
-10 71 -24 24 -38 25 -68 4z"/>
<path d="M1436 2964 c-20 -19 -21 -68 -2 -83 23 -20 69 -9 83 18 26 54 -40
107 -81 65z"/>
<path d="M1553 2684 c-28 -28 -29 -44 -2 -78 48 -61 130 -6 94 63 -20 39 -61
46 -92 15z"/>
<path d="M10852 4744 c-25 -17 -31 -71 -10 -92 16 -16 73 -15 85 1 23 28 22
59 -2 83 -28 28 -42 30 -73 8z"/>
<path d="M10967 4442 c-36 -39 -7 -102 45 -102 25 0 58 36 58 63 0 50 -70 76
-103 39z"/>
<path d="M11082 4077 c-27 -29 -28 -61 -2 -87 25 -25 51 -25 80 -2 43 35 15
112 -39 112 -10 0 -27 -10 -39 -23z"/>
<path d="M11157 3712 c-21 -23 -22 -68 -3 -88 37 -37 106 -3 106 53 0 45 -72
69 -103 35z"/>
<path d="M11157 3332 c-20 -22 -22 -63 -5 -80 20 -20 76 -15 88 7 16 31 12 59
-12 75 -29 21 -51 20 -71 -2z"/>
<path d="M11072 2964 c-31 -21 -30 -69 2 -90 55 -35 114 39 70 87 -21 23 -42
24 -72 3z"/>
<path d="M10942 2687 c-41 -44 -17 -107 41 -107 26 0 67 40 67 67 0 20 -46 63
-68 63 -10 0 -28 -10 -40 -23z"/>
<path d="M2599 2847 c-49 -18 -87 -46 -138 -102 -113 -123 -105 -231 28 -360
79 -77 101 -87 189 -93 94 -6 148 14 200 74 71 79 100 243 59 321 -61 114
-238 197 -338 160z"/>
<path d="M9832 2840 c-71 -25 -140 -77 -177 -131 -28 -40 -30 -51 -30 -130 0
-79 3 -92 35 -155 48 -94 93 -125 192 -132 111 -7 149 8 229 87 76 74 110 139
111 205 2 116 -163 277 -281 276 -14 -1 -50 -9 -79 -20z"/>
<path d="M2652 1504 c-27 -18 -28 -44 -4 -74 36 -45 107 2 81 53 -21 40 -42
46 -77 21z"/>
<path d="M4999 1461 c-48 -39 -18 -131 43 -131 10 0 30 12 45 26 21 21 24 32
20 61 -10 60 -62 81 -108 44z"/>
<path d="M2900 1343 c-40 -14 -54 -75 -22 -99 27 -21 69 -17 86 8 21 30 20 54
-4 78 -20 20 -33 23 -60 13z"/>
<path d="M4666 1275 c-21 -32 -20 -47 5 -79 38 -48 109 -20 109 42 0 60 -82
86 -114 37z"/>
<path d="M3208 1204 c-46 -24 -34 -95 18 -108 61 -16 100 58 54 104 -24 24
-36 24 -72 4z"/>
<path d="M4349 1174 c-43 -12 -49 -93 -8 -115 40 -21 99 11 99 55 0 43 -45 72
-91 60z"/>
<path d="M3590 1108 c-24 -26 -25 -37 -5 -65 21 -30 51 -34 80 -11 30 24 32
51 5 78 -26 26 -54 25 -80 -2z"/>
<path d="M4000 1113 c-44 -16 -51 -63 -15 -98 29 -30 49 -31 75 -5 28 28 25
64 -6 89 -28 22 -30 23 -54 14z"/>
<path d="M9856 1498 c-21 -30 -20 -51 4 -73 32 -29 74 -10 78 35 6 56 -51 82
-82 38z"/>
<path d="M7499 1470 c-28 -16 -43 -64 -28 -92 27 -51 75 -63 109 -26 55 60
-12 158 -81 118z"/>
<path d="M9622 1334 c-42 -29 -20 -104 31 -104 49 0 83 50 59 86 -8 12 -46 34
-59 34 -5 0 -19 -7 -31 -16z"/>
<path d="M7828 1294 c-35 -19 -45 -60 -20 -93 39 -53 112 -30 112 34 0 51 -48
82 -92 59z"/>
<path d="M9295 1195 c-30 -29 -32 -54 -5 -83 23 -25 41 -27 73 -11 45 24 50
67 11 98 -34 27 -50 26 -79 -4z"/>
<path d="M8162 1164 c-32 -22 -30 -78 3 -100 17 -11 34 -14 52 -9 34 8 43 21
43 62 0 33 -28 63 -60 63 -9 0 -26 -7 -38 -16z"/>
<path d="M8912 1114 c-43 -30 -16 -104 39 -104 23 0 49 33 49 63 0 25 -31 57
-55 57 -6 0 -21 -7 -33 -16z"/>
<path d="M8522 1103 c-31 -28 -35 -56 -11 -86 23 -30 45 -34 76 -12 32 22 35
64 7 92 -28 28 -45 29 -72 6z"/>
<path d="M1185 6156 c-58 -18 -92 -43 -126 -92 -41 -60 -47 -118 -20 -180 41
-91 107 -137 201 -138 89 0 170 55 207 141 61 147 -106 319 -262 269z"/>
<path d="M11295 6161 c-67 -16 -137 -72 -161 -130 -23 -56 -18 -132 12 -177
52 -76 105 -107 184 -108 101 -1 198 75 221 171 21 93 -54 208 -155 238 -54
16 -57 16 -101 6z"/>
<path d="M6136 1324 c-211 -47 -497 -153 -724 -269 -130 -66 -242 -142 -242
-164 0 -13 198 -101 320 -143 154 -52 345 -102 515 -134 258 -49 476 -34 825
57 221 57 553 183 574 217 18 29 -217 172 -424 256 -36 15 -74 31 -85 35 -82
35 -273 98 -400 132 -106 28 -267 34 -359 13z m229 -163 c43 -19 100 -78 116
-118 26 -68 1 -170 -53 -220 -27 -26 -98 -53 -137 -53 -121 0 -226 117 -206
229 14 75 84 157 151 174 41 10 91 6 129 -12z"/>
</g>
</svg>
